<?xml version="1.0" encoding="UTF-8"?><svg xmlns="http://www.w3.org/2000/svg" xmlns:xlink="http://www.w3.org/1999/xlink" height="1949.9" preserveAspectRatio="xMidYMid meet" version="1.0" viewBox="0.9 1.0 1873.4 1949.9" width="1873.4" zoomAndPan="magnify"><g><g fill="#F8C592" id="change1_1"><path d="M864.2,430c3-21.7,5.2-43.4,7.7-65.1c1.5-13.5,2.1-27.1,3.2-40.7c1.6-19.5,3.4-39,4.8-58.5 c0.7-10.4,1.4-20.9,2.1-31.3c1.1-17.2,1.8-34.4,4-51.6c0.1-1,0-2,0-3c-36.4-0.9-72.5,3.4-108.3,9.2 c-54.7,8.9-109.3,18.5-161.5,38.2c-12.9,4.9-12.9,4.4-22.2-6.5c-3.4-4-6.2-8.5-10.2-12.2c-12.7-11.9-27.3-21.2-41.9-30.6 c-29-18.8-59.2-35.2-91.3-48.1c-40.9-16.5-82.3-31.8-124.3-45.2c-27.8-8.8-55.8-17-84.4-22.7C186.9,51.2,131,49.2,75.4,46.1 c-2.4-0.1-5-0.4-7.2,1.2c0.5,2,2.2,3,3.5,4.2c17.1,17.1,35.8,32.5,55.1,47c40.5,30.4,83.6,57.1,126.3,84.2 c60,38.1,120,76.3,174.2,122.7c22.5,19.2,43.5,39.8,59.5,65c6,9.4,11.3,19.2,13.2,30.5c0.6,3.6-0.1,7-4.4,7.6 c-4.2,0.6-5.9-2.5-6.4-6.1c-0.7-4.3-2.2-8.3-4-12.2c-8.2-17.6-20.1-32.5-33.3-46.5c-23.5-24.9-50.4-46.1-77.8-66.5 c-11.3-8.4-22.6-17-34.7-24.4c0,0,0,0,0,0c-0.3-0.4-0.7-0.8-1.1-0.1c-0.1,0.1,0.3,0.5,0.5,0.7c7.3,24,13.1,48.3,19.2,72.6 c8.1,32.1,17.3,63.8,30.7,94.1c10.2,23.2,22.9,44.7,41.3,62.5c3.7,3.6,2.9,8.2-1.2,9.6c-3.1,1.1-5.1-0.7-7-2.6 c-11-10.6-20.1-22.6-27.9-35.7c-6.9-11.5-12.6-23.6-18.7-37.1c-0.1,2.1-0.2,2.9-0.2,3.6c-0.3,20.1-0.6,40.3,2,60.3 c2.8,21,8.6,40.9,21.2,58.4c4.3,6,9.1,11.4,14.2,16.7c2.3,2.4,2.6,5.1,0.3,7.6c-2.3,2.4-5.1,2.2-7.6,0.2c-0.9-0.7-1.7-1.6-2.5-2.4 c-24.9-24.7-34.6-55.6-37.5-89.5c-1.4-17-1.1-34-0.9-50.9c0.1-7.5,0.5-15,3.3-22.1c0.6-1.5,0.1-2.6-0.3-3.8 c-9.9-27.9-16.9-56.6-24.4-85.1c-6-23.1-10.1-46.8-21.4-68.2c-1.2-2.3-2.9-3.5-4.7-4.7c-43.8-29.5-89-56.7-133.2-85.6 c-37.5-24.5-74.2-50.2-107.5-80.4c-5-4.5-9.8-9.2-15-14.1c-0.4,1-0.7,1.5-0.7,1.9c-0.5,4.4,0.5,8.6,0.7,12.9 c1.1,36.5,4.6,72.7,8.9,109c6.9,58.6,22.1,115,43.9,169.7c11.7,29.3,25.6,57.4,41.3,84.8c20.8,36.3,43.2,71.6,69.2,104.4 c20.7,26.1,42.3,51.4,68.2,72.8c23.3,19.2,48.1,36.3,73.9,51.9c22.7,13.7,45.8,26.6,71.3,34.6c8.1,2.5,13.1,8.3,18,14.3 c1.3,1.6,1.5,3.6,1.2,5.7c-2.1,18.5-3.3,37.1-2.7,55.7c0.7,22.5,1.8,44.9,3.7,67.3c2.9,34,8.4,67.4,20.7,99.4 c4.8,12.5,9.9,24.7,18.4,35.2c0-6.6-2.8-12.5-4.1-18.9c-6.1-31-0.5-60.1,11.7-88.8c5.7-13.3,16.1-21.8,26.3-30.6 c19.7-17.1,40.2-33.2,61.3-48.6c24.2-17.6,49.5-33.6,75.4-48.6c24.6-14.3,50.1-26.9,73.8-42.8c27.7-18.6,49.5-42.6,66.4-71.2 c19.2-32.4,30.4-67.8,39.2-104.1C854.4,492.2,859.8,461.2,864.2,430z M680,304.8c-0.2-2.6,1.3-4.2,3.3-5.2 c2.3-1.1,4.2,0.4,5.7,1.9c7,7.2,13,15.1,19,23.1c7.2,9.6,13.9,19.5,18.6,30.6c1.1,2.7,1.9,5.6,2.8,8.5c1.1,3.5-0.4,6.1-3.6,7.1 c-3.5,1-5.7-1.1-6.7-4.4c-3-10.2-8.2-19.2-14.3-27.9c-7.1-10.1-14.9-19.6-22.8-29C680.8,308.1,679.7,306.7,680,304.8z M654.1,329.1c2.6-3.7,6.3-2.7,9.3-0.7c16.6,11.3,30.8,25.2,42.3,41.8c0.8,1.1,1.4,2.3,1.3,3.7c0.3,2.9-1.3,4.9-3.8,5.8 c-3.2,1.1-5.1-1.4-6.4-3.6c-5.2-8.2-12.1-15-18.9-21.8c-6.2-6.3-13.1-11.8-20.4-16.7C654.5,335.6,651.2,333.1,654.1,329.1z M736.7,616c-3.8,6.1-8.3,11.6-13.8,16.3c-20.8,17.6-44.9,12.9-61.8-7.4c-14-16.8-20.7-36.8-23.6-58c-4-29.2-1.3-57.8,11.2-84.9 c4.9-10.7,11.3-20.4,20.7-27.7c18.8-14.7,39.6-13.5,56.5,3.6c14.3,14.5,21.5,32.6,25.9,52c2.6,11.2,3.6,22.7,3.4,34.2 C755.1,569.6,750.3,593.9,736.7,616z" fill="inherit"/><path d="M1822.7,186.7c-10.1,1.8-20.4,2.9-30.6,4.3c-27.7,4-55.4,8.7-82.8,14.6c-51.5,11.1-101.1,27.7-149.4,48.6 c-17.4,7.5-34.5,15.8-51.3,24.5c-1.9,1-3.5,1.6-1.6,4.2c2.1,2.8,0.5,5.4-1.8,7.4c-4,3.4-7.1,7.5-9.9,11.9 c-7.3,11.6-12.5,24.2-17.3,37c-14.6,38.4-24.5,78.2-36.8,117.3c-0.7,2.1-0.8,3.5,2.1,3.5c3.5,0.1,4.8,2.8,5.3,5.7 c1.5,9.8,2.6,19.8,3.3,29.7c1.1,16.2,0.4,32.2-2.1,48.2c-2.9,18.8-8.7,36.5-20.9,51.6c-2.8,3.5-5.8,6.9-9.6,9.4 c-2.7,1.8-5.5,1.8-7.5-1c-2-2.7-1.6-5.4,0.9-7.6c12.7-10.6,19.2-24.7,23.5-40.2c5.9-21.5,5.7-43.5,4.4-65.4 c-0.4-7.2-0.7-14.7-3.2-22.4c-2.7,6.3-5,11.9-7.6,17.5c-7.7,16.5-17.2,31.9-30.2,45c-2.7,2.7-5.9,4.3-9.1,0.8 c-3.1-3.3-1.1-6.1,1.4-8.7c10.3-10.2,18-22.2,24.6-35c12.9-24.8,19.3-51.9,27.4-78.4c12.4-40.6,22.7-82,45.6-118.6c0,0,0,0,0,0 c0.3-0.4,1-1.2,0.9-1.3c-0.8-0.8-1.3-0.1-1.8,0.4c-0.6,0.2-1.3,0.4-1.8,0.7c-58.7,33.5-114.1,71.3-159.1,122.6 c-3.1,3.5-6.5,4-9,1.4c-3.1-3.2-1.4-6.1,0.9-8.8c9-10.8,18.9-20.6,29.2-30.2c38.5-36,81.8-65.5,127.5-91.6 c94.1-53.9,195.2-87.2,302.5-102c5.8-0.8,11.5-1.9,17.2-2.9c-47.7-10.7-95.5-19.3-144-23.8c-17.6-1.6-35.2-2.9-52.9-3 c-17.3-0.1-34.6,1.7-51.9,2.4c-43.4,1.8-86.6,6.3-129.9,11c-58.2,6.3-114,21.7-168.5,42.4c-12,4.5-24.2,8.5-35.5,14.8 c-1.7,1-2.8,0.2-4.2-0.3c-19.9-7.3-40.1-13.2-60.8-17.7c-33.8-7.3-67.8-13.8-102.1-18.8c-20.1-2.9-40.3-5-60.6-5.9 c-0.8,8.1,1,16.1,1.5,24.2c0.4,6.2,0.8,12.6,1.4,18.8c1.5,17.9,2.1,35.8,3.3,53.7c1.5,21.3,3.1,42.7,5,64c1.8,20,3.7,39.9,6,59.8 c5.5,46.6,13,92.9,25.1,138.3c6.3,23.5,13.9,46.5,24.6,68.4c9.2,18.8,20.6,36.3,34.2,52.5c20.4,24.2,46,41.6,73.3,56.7 c35.4,19.5,70.7,39.2,103.9,62.3c22.8,15.8,44.9,32.7,65.9,50.8c8.4,7.3,17,14.4,25.5,21.6c3,2.5,4.8,5.9,6.7,9.3 c1.5,2.6,2,5.7,4.6,7.6c0.3-1.3,0.8-2.5,1-3.8c3.8-35.4,6.8-70.9,5.9-106.5c-0.6-24-2.1-47.9-5.5-71.7c-0.2-1.7-0.3-3.5,0.6-4.9 c4.1-6.2,8.7-12.7,15.9-14.5c28.6-7.2,56.4-16.9,84.2-26.8c25.6-9.1,50.6-19.8,74-33.6c44.4-26.1,83.5-58.9,119.1-95.9 c30.9-32.1,60-65.6,83.8-103.5c13-20.6,24.9-41.8,34.7-64c10.9-24.6,19.3-50,26.9-75.7c7.5-25.4,14-51,18.5-77.2 C1826.6,187,1826.5,186,1822.7,186.7z M1220.5,364.5c1.6,3.5-0.6,5.6-3.5,7.1c-10.4,5.5-20.8,11.2-30.3,18.2 c-1.3,1-2.6,1.3-4.3,1.3c-2.1,0.2-3.9-0.5-4.9-2.6c-1.1-2.2-0.5-4.2,1.3-5.9c3.9-4,8.8-6.5,13.4-9.4c6.4-4.2,13.1-7.8,20-11.3 C1215.8,360.1,1218.8,360.9,1220.5,364.5z M1146.7,375c6.2-10.9,14.3-20.4,22.6-29.6c8.4-9.2,17.5-17.7,27.7-24.9 c3-2.1,6.1-4,9.8-4.6c2.5-0.1,4.4,0.9,5,3.3c0.8,2.8,0.1,5.3-2.7,6.8c-10.4,5.5-19,13.4-27,21.8c-9.7,10-19,20.4-25.8,32.7 c-1.7,3.1-3.8,5.8-7.8,4.1C1145.1,383.1,1144.4,379,1146.7,375z M1212.6,616c-4,6.5-8.8,12.5-15,17.2 c-18.8,14.3-39.4,13.1-56.2-3.6c-12.9-12.8-20.2-28.8-24.5-46.2c-8.6-34.7-6.9-68.7,7.8-101.5c4.8-10.7,11.3-20.4,20.7-27.7 c18.8-14.7,39.7-13.4,56.5,3.6c14.5,14.6,21.6,32.9,26,52.5c2.5,11.1,3.3,22.4,3.3,33.7C1231.2,569.6,1226.3,594,1212.6,616z" fill="inherit"/><path d="M740.1,1548c-16.9-11.7-35.7-20-53.9-29.2c-28.2-14.3-54.9-30.5-77.2-53.3c-11.7-12-23.4-24.1-34.7-36.6 c-13.3-14.7-26-29.9-36.4-46.7c-5.8-9.4-11.7-19.2-10.9-31c0.5-7.2,2.8-14,5.9-20.4c7.5-15.5,17.4-29,31.8-38.9 c5.9-4,11.7-4,17.6,0c6.6,4.3,12.4,9.5,18,15c5.3,5.3,10.8,10.4,16.8,14.9c4.4,3.3,9.3,5,14.3,1.9c5.1-3.2,5.2-8.7,4.4-13.9 c-1-6-2.4-12-4-17.9c-7.4-26.5-15.5-52.9-22.4-79.5c-6.7-25.8-12.7-51.8-14.6-78.6c-0.8-10.9-1.5-21.9-1.3-32.8 c0.2-9.9-0.5-20,1.6-29.8c0-2,0-4,0-6.1c-0.7-0.5-1.3-1.1-2-1.5c-19.4-10.9-38.5-22.3-56.4-35.6c-13.9-10.3-27.9-20.5-33.8-38 c-13.8,19.9-25.8,40.8-37.3,62c-15.4,28.4-26.7,58.7-38.6,88.7c-5.3,13.4-11.2,26.7-14.8,40.6c-7,27.3-10.8,55.3-14.6,83.3 c-4.3,31.3-5.5,62.7-5.3,94.1c0.1,23.4,1.5,46.9,4.4,70.2c3.2,25.1,7.6,49.8,14,74.3c3.7,14.1,8.2,28,13.3,41.7 c1.8,4.8,0.2,8.8-3.8,10.4c-4.1,1.7-7.9-0.2-10-4.9c-0.5-1.2-0.9-2.5-1.4-3.7c-14.2-38.2-22.4-77.7-27.1-118.1 c-3.4-28.8-4.7-57.7-4.4-86.7c0.4-33.6,3.4-67,8.4-100.3c5-33.5,11.6-66.7,21-99.2c2.1-7.2,4.2-14.5,6.4-22 c-2.4,0.4-3.5,1.7-4.8,2.7c-11.5,9.1-21.7,19.6-32,30.1c-24.5,25.2-46.4,52.2-64.9,82.1c-11.8,19.1-23.3,38.5-32,59.3 c-3.2,7.6-6.8,14.7-12.6,20.6c3.4,6.1,8.8,10.7,13,16.2c21.7,28.3,38.3,59.5,52.9,91.8c10,22.1,18.9,44.6,26.3,67.8 c7.5,23.6,12.5,47.7,16,72.2c1.3,9.3,2.9,18.7,3.1,28.1c3.2-1.4,6.6-1.9,10.1-2.1c19.2-1.6,38.6-1.2,57.6-4.7 c1.1-0.2,2.3-0.5,3.3,0.4c5.3,4.4,10.5,8.7,13.4,15.2c8.2,18.2,16.6,36.3,27.2,53.2c13.1,2.8,26,6.2,38.8,10.5 c24.2,8,49.2,13.6,74.4,17.8c24,4,48,7.8,72.5,6.7c8.1-0.4,16.2-1,23.9-4.1c13.7-5.5,24.9-14.7,34.6-25.5 c14.6-16.3,25.9-34.6,30.5-56.3c2.8-13.1,2.6-25.7-5.5-37.2C754,1557.6,747,1552.9,740.1,1548z" fill="inherit"/><path d="M1531.1,1280.3c-13.5-27.6-30.1-53.3-48.1-78.2c-3.3-4.5-6.1-9.4-10.9-13.4c0,1.6-0.2,2.6,0,3.5 c5.7,27.2,8.9,54.7,12.2,82.2c3.3,28.3,5,56.7,5.5,85.1c0.4,23.5-0.8,47-2,70.4c-0.9,15.9-2.3,31.9-4.1,47.7 c-2.2,19.6-4.9,39.2-7.8,58.7c-1.7,11.6-4,23.2-6.2,34.8c-1,5.2-4.3,7.6-8.7,6.9c-4.3-0.6-6.4-4-5.9-9.4c0.1-1,0.3-2,0.5-3 c1.2-6.4,2.4-12.7,3.6-19.1c3.9-22.1,6.9-44.3,9.3-66.6c2.1-19.3,3.7-38.7,4.9-58.1c0.8-12.5,0.8-25,1.4-37.4 c1.1-21.2-0.3-42.3-1.1-63.4c-0.7-16.8-2.7-33.5-4.5-50.1c-1.4-12.9-2-25.9-5.4-38.4c-3.7-13.9-8.3-27.6-12.8-41.4 c-5.2-16-12.1-31.3-17.8-47c-6.3-17.4-12.9-34.6-21-51.2c-13-27-28.4-52.8-44.3-78.1c-7.9-12.5-15.7-25.1-24.6-36.9 c-2.2,1.1-3,3.4-4.5,5.2c-4.6,5.6-9.1,11.2-13.6,16.8c0.3,2.7,0.7,5.4,1,8.1c0.4,3.3,0.7,6.6,1.1,9.9c1.3,12.2,2.2,24.4,3.3,36.6 c1.5,16.9,2.2,33.8,2.3,50.7c0,9.7-0.4,19.5-1.3,29.3c-1.9,21.2-6.1,42-10.9,62.6c-7.1,30.2-16.5,59.8-24.8,89.7 c-2.4,8.6-4.9,17.3-5.6,26.2c-0.3,4.4,0.9,8.4,5,10.7c4,2.2,8.1,1.6,11.8-0.8c2.2-1.4,4.4-3,6.4-4.8c7.9-7.1,15.7-14.4,23.6-21.5 c11.6-10.3,18-10.3,29.7-1c11.7,9.4,19.9,21.4,26.5,34.5c7.6,14.9,8.4,29.9-0.5,44.6c-4.1,6.8-8.3,13.6-13,20.1 c-20,27.3-43.3,51.8-67.5,75.3c-9.9,9.6-20.4,18.6-32.1,26.1c-28.8,18.4-60.4,31.5-89.9,48.7c-6.8,5.5-14.5,9.8-20.3,16.6 c-5.9,6.8-9,14.6-9.8,23.4c-0.3,10.1,1.6,19.9,5.1,29.3c8.7,23.4,23.2,42.6,42.5,58.5c15.3,12.6,33.3,16,51.7,15.6 c17.6-0.4,35.3-2.5,52.8-5.4c30.8-5.1,61.2-11.6,90.9-21.5c6.3-2.1,12-5.6,18.7-6.8c6.3-13.2,11.8-26.8,16.5-40.6 c3-8.7,7.2-16.3,14.6-22c1.9-1.5,3.8-2.4,6.3-2.4c6.1-0.2,12.3-0.2,18.4-1.2c3.5-0.6,6.1-0.1,8.7,2.2c1.1-19.7,4.5-39.2,8.4-58.5 c8.4-41.1,23.7-79.8,41.2-117.8c8.6-18.6,18.3-36.6,29-54.1c0.7-1.1,1-2.4,1.5-3.7c-4-4.8-8.4-9.1-10.5-15.4 C1548.7,1320.6,1540.7,1300.1,1531.1,1280.3z" fill="inherit"/><path d="M1003,1202c-11.1-13.5-23.9-24.5-40.1-31.7c-18.9-8.4-38.4-10.3-58.4-6.8c-24.7,4.3-44.6,17.4-60.6,36.5 c-18.6,24.9-25.3,52.6-18.9,83c5.1,24.2,18,43.7,37.6,58.7c12.8,9.8,27.3,15.6,42.9,18.9c2.2,0.5,4.4,0.9,4.5-2.6 c0.2-5.1,0.7-10.3,0.8-15.4c0.1-13.5-0.2-27,0.2-40.5c0.2-5.9-1.1-10.3-5.6-14.5c-6.6-6-7.5-17.2-3.4-25.9 c4.4-9.6,14.5-13.9,22.1-13.5c9.3,0.5,17,4.9,20.9,13.8c3.8,8.7,3.1,17.2-2.7,25c-1.1,1.5-2.3,2.7-2.4,4.7 c-0.2,7.1-0.6,14.3-0.9,21.4c-0.4,14,0.4,27.9,0.8,41.9c0.1,4.4,1.1,5.4,5.5,4.3c23.9-5.9,43.1-18.9,57.9-38.4 c13.7-18.1,20.1-39,19.6-61.5C1022.3,1238.4,1015.6,1219.1,1003,1202z" fill="inherit"/></g><g fill="#E6DED4" id="change2_1"><path d="M806.1,1619.1c2.9,3.8,5.5,8.7,11.7,7.9c2.9-4.4,6.7-7.9,10.6-11.4c1.9-1.7,3.5-1.9,5.6-0.7 c-0.2-3.3-0.8-6.5-2.7-9.4c-11.9-18.4-25.6-35.5-38.5-53.1c-26-35.4-53-70.1-76-107.7c-4.3-7-11.8-9.3-18.4-5.9 c-7.2,3.7-10.2,11.9-6.7,19.5c1.9,4,4.2,7.9,6.7,11.7c21.8,33.5,45.8,65.5,69.6,97.6C780.8,1584.7,793.3,1602,806.1,1619.1z" fill="inherit"/><path d="M1095.9,1731.6c-6.2-1.2-10.8,2.4-14.5,6.8c-4.4,5.2-7.6,11.3-10.9,17.2c-16.9,30.7-28.6,62.8-27.6,98.5 c0.1,2.2,0.8,4.7-0.8,6.7c0.7,1.5,1.4,3,2.2,4.4c7.2,11.1,19.2,15.6,30.3,21.3c0.9-4.4-0.6-8.6-1.1-12.8 c-1.8-14.2-2.8-28.5-0.4-42.6c4.8-27.3,15-52.5,31.2-75.3C1111.3,1746.2,1107,1733.7,1095.9,1731.6z" fill="inherit"/><path d="M900,1876.5c0-18.9-5.8-36.3-13.9-53c-10.6-21.9-25.2-41.4-37.2-62.5c-2.9-5-10.4-7.8-15.1-6.4 c-8.9,2.7-15.7,11.2-8.3,23.2c9.6,15.7,19.6,31.3,28.8,47.2c10.3,17.9,17.8,36.8,16.7,58.1c-0.2,3.8,0.2,7.6,0.3,11.5 c10.5-3.6,20.5-8.5,29.8-14.5C899.9,1879.2,900,1877.8,900,1876.5z" fill="inherit"/><path d="M823,1902.6c-11.2-10.1-22.8-19.7-33-30.9c-14.2-15.6-24.3-33.5-31.9-53c-2.8-7.1-4.7-14.5-7.2-21.7 c-2.6-7.6-12.2-14-20.3-8.7c-5.9,3.9-9,10.8-7,17.8c9.8,34.4,25,65.7,50.9,91.1c2.4,2.4,5.8,4.1,6.5,7.9c14.6,2.5,29.3,3.8,44,0.8 C825,1904.4,824,1903.5,823,1902.6z" fill="inherit"/><path d="M1161,1801.6c-9.9,10.4-15.4,23.6-20.9,36.6c-8.5,20.4-11.7,42.6-21.1,62.7c10.2,2.2,20.6,3.1,31.1,2.8 c0.4-5.9,3.5-11,5-16.6c6.5-23.7,12.9-47.5,27.7-67.9c2.3-3.1,4-6.9,2.8-11.2C1182.4,1797,1169,1793.2,1161,1801.6z" fill="inherit"/><path d="M1324.9,999.9c-2,0.2-3.1,1.8-4.4,3.1c-11.5,12.1-24.9,22-38.5,31.5c-25.6,17.8-52.7,32.9-81.2,45.6 c-28.6,12.7-58.1,22.9-88.3,30.9c-38,10-76.5,17.1-115.6,21.2c-19.8,2-39.7,3.2-59.5,3.6c-32.2,0.7-64.5,0.3-96.6-2.7 c-15.3-1.4-30.6-3-45.8-5.4c-29.3-4.6-58.3-10.7-86.8-18.7c-31.9-9-63-20.1-92.9-34.4c-6.7-3.2-13.2-7.1-20.2-9.7c0,2,0,4,0,6.1 c4.7,4.6,9.2,9.5,14.1,13.9c14.5,13,29.7,25,45.7,35.9c32.5,22.2,66.6,41.3,103.3,55.6c3.8,1.5,7.5,4.4,11.6,3.9 c4.6-0.6,8.1,0.9,11.6,3.3c3.3,2.3,6.8,4.1,10.7,5.2c17.1,4.7,34.4,8.2,51.9,11.2c16-19.2,35.9-32.2,60.6-36.5 c19.9-3.5,39.5-1.6,58.4,6.8c16.2,7.2,29,18.3,40.1,31.7c0.7-0.3,1.4-0.9,2.2-1c28.2-5.8,56.4-11.8,84.1-20.1 c17.4-5.2,35.3-8.8,51.3-18.5c26-15.7,51.7-32,76.3-49.8c18.4-13.3,36.3-27.3,53.1-42.7c12.6-11.6,24.6-23.7,35.8-36.7 c7-8.2,13.1-17,20.3-25.1C1325.6,1005.3,1325.2,1002.6,1324.9,999.9z" fill="inherit"/><path d="M1243.5,1433.4c-6-1.1-10.9,1.8-14.3,6.3c-11.3,15.3-22.2,31-33.4,46.5c-18.2,25.1-36.6,50.1-54.7,75.2 c-5.7,7.9-12.1,15.4-16.8,24c-3.9,7.2-2.1,13.9,4.5,18.8c5.5,4.1,12.1,3,17.9-2.4c5.2-4.9,8.1-11.7,13.2-16.7 c0.8-8.8,3.9-16.6,9.8-23.4c5.9-6.7,13.5-11.1,20.3-16.6c-1.2-1.6,0.6-2.5,1.2-3.3c9.1-12.7,18.3-25.3,27.4-37.9 c11.3-15.6,22.8-31,33.4-47c2.1-3.2,4.2-6.5,3.8-10.5C1255.1,1440.2,1249.9,1434.6,1243.5,1433.4z" fill="inherit"/></g><g fill="#703A44" id="change3_1"><path d="M1416.3,700.9c16.4-5.4,32.7-11.3,49.2-16.7c44.3-14.4,84.4-37,122.5-63.1c40.9-28,78-60.9,111.7-97.3 c34.4-37.1,64.1-77.8,91.4-120.4c13.9-21.7,26-44.6,36-68.4c11.5-27.6,20.1-56.1,28.4-84.7c7.8-26.9,12.5-54.4,17.2-82 c1.6-9.1-0.7-13.3-9.5-16.6c-13.8-5.2-28.3-8-42.7-11.1c-41.2-9-82.5-17-124.2-23.1c-35.8-5.2-71.9-8.1-108.1-7.3 c-54.7,1.2-109.1,5.7-163.5,11.6c-60.2,6.5-118.2,21.3-174.6,42.9c-12.3,4.7-24.8,8.8-36.4,15.1c-1.3,0.7-2.4,0.5-3.7,0.1 c-25.1-9.1-50.8-16-76.9-21.3c-33.6-6.8-67.4-13-101.4-17.5c-24.3-3.2-48.8-4.2-73.3-4.5c-48.3-0.5-96.7-1.5-144.8,4.4 c-40.2,4.9-80,12.2-119.6,20.5c-27.8,5.8-54.8,14-81.3,24.2c-5.5,2.1-8.4,1.2-12.3-2.7c-14.7-15.2-29.6-30.2-48-41.1 c-3.4-2-6.8-4.2-10.1-6.4c-29.2-19.1-59.7-35.6-92.1-48.6c-33.7-13.6-67.6-26.3-102.1-37.8c-33.7-11.3-67.5-21.9-102.3-29 C187.5,7.9,128.2,5.7,69,3c-7.3-0.3-14.8,0.5-22-2c-4.3,0-8.7,0-13,0c-0.3,0.3-0.6,0.8-1,0.9C20.3,5.4,18.4,8.1,17.1,24.2 c-1.6,20,0.5,40,1.3,59.9c1.8,46.1,6.5,92,14.6,137.5c7.3,41.5,19.6,81.5,34.7,120.8c7.9,20.7,16.7,41,27,60.7 c38.9,74.7,85.4,143.9,146.2,203c23.5,22.9,46.3,46.5,72.9,66c29.6,21.7,60.5,41.2,93.5,57.4c3.9,1.9,5.2,4,4.8,8.3 c-0.9,9.9-1.9,20-1.6,29.9c0.3,13.3,1,26.6,1.7,39.9c1.5,25.6,3.4,51.2,7.7,76.5c4.5,26.6,12.1,52.2,23.9,76.5 c3.9,8.1,9.1,15.5,14.5,22.7c2.3,3,2.2,5.2,0.1,8.4c-17.8,27-33.9,55-47.9,84.1c-0.9,1.8-1.7,3.5-3.3,4.9 c-25.9,22.1-49,47.1-72.8,71.3c-22.7,23.1-43.6,47.7-61,75.1c-7.4,11.7-14.9,23.3-21.2,35.6c-2,4-3.1,5-7.1,1.7 c-27.1-22.2-56.8-40.1-90-51.7c-18.8-6.5-37.2-7.5-57.2-2.4c-44.8,11.4-72.6,40-89.4,81.4c-5.1,12.5-4.6,26.1-6.6,39.1 c-0.2,1.4,0.6,3-1,4.1c0,10,0,20,0,30c1.8,7.6,1.8,15.4,2.9,23c6.8,47.7,18.8,93.9,38.6,138c17.2,38.2,40.5,72.2,70.4,101.6 c21.2,21,41.4,43,66,60.2c14.7,10.3,29.7,20.3,46.3,27.5c21.2,9.2,43.3,10.7,66,7.4c20.8-3.1,39-11.9,56.7-22.5 c2.3-1.3,4.3-3.2,6.1-5.1c12.2-12.1,24.1-24.4,36.5-36.3c7.4-7.1,12.7-15.4,16.2-24.9c0.8-2.2,1.8-3.1,4.2-3.2 c6.7-0.3,13.3-0.8,19.9-1.4c2.3-0.2,3.2,0.7,4.2,2.5c37.4,70.3,84.9,133.3,138.8,191.6c21.2,22.9,43.3,45.2,67.5,65.2 c29.3,24.1,62.7,39.9,98.8,50.7c18.4,5.5,37.2,9.2,56.3,10.7c0.9,0.1,2.1-0.2,2.6,1c4.3,0,8.7,0,13,0c0.7-1,1.7-0.8,2.7-0.9 c22.4-1.8,44.1-6.7,64.8-15.6c10.9-4.7,21.9-9.5,30.6-17.7c14.5-13.7,28.7-27.9,42.4-42.4c8.7-9.2,12.6-21.2,11.9-33.5 c-1.1-18.9-6.9-37-13.1-54.7c-10.3-29.5-25-56.9-40.9-83.7c-3.9-6.6-7.7-13.2-11.9-20.2c25,4.1,49,8.3,73.7,6.3 c24.3-2,48.6-3.6,73.2-8c-6.4,13.3-12.3,25.8-18.3,38.2c-13.2,27.2-23.9,55.4-29.8,85.1c-3,14.9-6.8,29.8-2.8,45.3 c2.4,9.2,6.5,17.4,13.3,24.2c10.4,10.4,21.1,20.4,31,31.2c11.9,13,26.5,21.6,42.5,28.2c28.7,11.8,58.4,17.3,89.4,12.3 c18.1-2.9,35.8-7.7,53-14.3c21.4-8.2,41.9-18.3,59.6-33.1c27-22.6,52.1-47.4,74.6-74.4c42-50.3,76.5-105.6,105.2-164.6 c1-2.1,1.1-4.8,2.9-6.2c12.8,12.7,25.6,25.1,38.1,37.8c5.9,6,12.2,11.2,19.5,15.4c29.2,16.6,60.2,23.8,93.6,17.4 c20.2-3.9,37.5-14.4,54.5-25.1c35.2-22.2,63.5-52.3,91.6-82.3c35.4-37.6,58.8-82.5,74.7-131.4c9.8-30.1,17.2-60.9,21.5-92.3 c3.1-22.5,4.8-45.1,1.2-67.7c-2.2-14.3-6.5-28.1-11.2-41.8c-13.3-38.5-39.8-63.1-79.2-73.9c-6.9-1.9-14,0.4-20.9-0.7 c-8.9-1.4-17.6-0.2-26.2,1.9c-34.1,8.3-63.8,25.6-92,45.7c-16.4,11.7-30.3,26-44.4,40.2c-4.1,4.1-4.1,4.1-6.3-1 c-9.6-21.5-21.2-41.8-33.7-61.8c-18.3-29.2-39.8-55.8-64.1-80.3c-3.1-3.2-6.3-6.4-7.8-10.8c-13.6-40.2-34-77-55.9-113 c-11.9-19.6-24.7-38.7-37.5-57.8c-1.4-2.1-1.5-3.5-0.1-5.8c6.9-11.9,11.4-24.8,15.8-37.7c8.5-25.3,12.7-51.4,15.1-77.8 c2.8-30.2,5-60.4,4.4-90.7c-0.4-17.8-1.6-35.6-3.3-53.4C1413.4,703.1,1413.5,701.8,1416.3,700.9z M1384.8,666.7 c-7.2,1.8-11.8,8.3-15.9,14.5c-0.9,1.4-0.8,3.1-0.6,4.9c3.4,23.8,4.9,47.7,5.5,71.7c0.9,35.6-2.1,71.1-5.9,106.5 c-0.1,1.3-0.6,2.6-1,3.9c-1.1,15.5-4.2,30.5-8.5,45.4c-5.2,18.2-10.8,36.3-20.5,52.7c-0.9,1.6-0.5,2.8,0.4,4.1 c1.6,2.5,3.1,5.1,4.6,7.6c8.9,11.8,16.8,24.4,24.6,36.9c16,25.4,31.3,51.1,44.3,78.1c8,16.6,14.6,33.8,21,51.2 c5.7,15.7,12.6,31.1,17.8,47c4.5,13.7,9.1,27.4,12.8,41.4c3.3,12.5,4,25.6,5.4,38.4c1.8,16.7,3.9,33.4,4.5,50.1 c0.9,21.1,2.2,42.3,1.1,63.4c-0.6,12.5-0.6,25-1.4,37.4c-1.3,19.4-2.8,38.8-4.9,58.1c-2.4,22.3-5.4,44.5-9.3,66.6 c-1.1,6.4-2.4,12.7-3.6,19.1c-0.2,1-0.4,2-0.5,3c-0.5,5.4,1.6,8.7,5.9,9.4c4.4,0.7,7.7-1.7,8.7-6.9c2.2-11.6,4.5-23.1,6.2-34.8 c2.9-19.5,5.6-39.1,7.8-58.7c1.8-15.9,3.2-31.8,4.1-47.7c1.3-23.4,2.4-46.9,2-70.4c-0.5-28.5-2.2-56.8-5.5-85.1 c-3.2-27.5-6.4-55.1-12.2-82.2c-0.2-0.9,0-1.9,0-3.5c4.8,4,7.7,8.9,10.9,13.4c17.9,24.9,34.6,50.6,48.1,78.2 c9.7,19.7,17.6,40.3,24.5,61.1c2.1,6.4,6.6,10.6,10.5,15.4c3.7,3.7,6.7,2.8,10.1-0.8c4.4-4.6,8.9-9.1,12.4-14.4 c12.6-19.3,29.6-34.1,48.3-47.2c18.5-13,38-23.9,58.8-32.8c14.2-6.1,28.8-10.9,44.3-11.5c16.8-0.7,31.6,5.5,45.2,15 c13.7,9.6,20.4,24.2,27.2,38.7c4.7,10.1,6.6,20.9,6.7,32c1.9,12.9,0.3,25.8-0.4,38.7c-3.5,37.5-11.9,73.9-23.5,109.6 c-15.7,48.2-39.1,92.1-73.2,129.9c-13.1,14.5-28.8,26.1-44.9,37.1c-14,9.6-28.4,18.7-44.5,24.4c-29.8,10.4-59.2,8.3-88.2-3.1 c-8.5-3.4-16.6-7.6-24.5-12.3c-15-8.9-20.1-23.6-22.8-39.5c-0.4-2.3-0.5-4.7-0.3-7c0.9-9.8-2.8-17.4-10.8-23 c-2.5-2.2-5.1-2.7-8.7-2.2c-6,1-12.2,1-18.4,1.2c-2.5,0.1-4.4,0.9-6.3,2.4c-7.3,5.7-11.6,13.3-14.6,22 c-4.7,13.8-10.1,27.4-16.5,40.6c-7,15.7-14.6,31-23.1,45.9c-21.1,36.6-43.8,72.3-69.7,105.8c-15.3,19.8-31.4,38.8-52.1,53.3 c-23.4,16.4-49.1,27.9-76.5,35.6c-16.4,4.6-33,7.9-50.1,8.2c-10.5,0.3-20.8-0.6-31.1-2.8c-15.4-2.9-30.2-7.6-44.3-14.4 c-11.1-5.7-23.1-10.1-30.3-21.3c-0.9-1.4-1.5-2.9-2.2-4.4c-6.9-12.7-7.1-26.2-4.9-40.1c4.8-31.1,14.3-60.8,27.1-89.5 c15.4-34.5,32.5-68.2,53-100c2.5-3.9,3-7-0.9-10c-0.4-0.3-0.7-0.7-1-1.1c-7.1-7.8-7.3-7.9-16.1-2.8c-19.7,11.5-41.1,18-63.4,21.6 c-23,3.7-46.3,6.2-69.5,6.7c-39.2,0.8-77.5-5.5-113.8-21.3c-6.4-2.8-12.9-5.3-18.6-9.5c-2.1-1.2-3.7-1-5.6,0.7 c-3.9,3.5-7.7,7-10.6,11.4c26.5,35.4,49.6,72.8,69.9,112c14.4,27.7,25.2,56.7,31.8,87.4c3.3,15.5,1.8,29.9-6.4,43.6 c-2.9,4.9-7.4,7.4-12,10.1c-9.3,6-19.3,10.9-29.8,14.5c-14.9,5.8-30.4,9.6-46.3,11.2c-14.7,2.9-29.4,1.7-44-0.8 c-13.8-1.6-27.2-4.8-40.4-8.7c-36.1-10.7-69.4-26.6-98.9-50.4c-25.5-20.5-46.3-45.4-66.7-70.6c-23.7-29.2-46-59.5-66.5-91.1 c-6.6-10.2-13.2-20.3-18.5-31.3c-10.7-16.9-19-35-27.2-53.2c-2.9-6.4-8.1-10.8-13.4-15.2c-1.1-0.9-2.2-0.6-3.3-0.4 c-19,3.5-38.4,3.1-57.6,4.7c-3.5,0.3-6.9,0.8-10.1,2.1c-0.1,0.3-0.2,0.7-0.4,0.9c-9.7,6.4-9.9,16.3-10.9,26.6 c-1.7,18.9-9.4,34.3-27.4,44c-21.6,11.6-44.3,18.7-68.6,19.1c-17.2,0.3-34.1-3.3-49.8-11.1c-23.6-11.7-45-26.5-64.9-43.6 c-22-18.9-38.3-42.4-53.1-67c-20.6-34.2-34-71.4-43.9-110c-6.3-24.5-11.5-49.3-13.6-74.6c-2-23.1-3.7-46.4,4.7-68.6 c9-23.9,22.5-44,48.3-53.2c18.1-6.5,35.7-4.7,53.3,1.1c36.7,12.1,68.9,32.1,98.4,56.8c0.9,0.7,1.7,1.6,2.6,2.3 c6.9,6.1,6.9,6.1,14.1,1.2c5.8-5.9,9.4-13,12.6-20.6c8.7-20.8,20.1-40.1,32-59.3c18.5-29.9,40.4-57,64.9-82.1 c10.2-10.5,20.5-21,32-30.1c1.3-1,2.4-2.3,4.8-2.7c-2.2,7.5-4.3,14.8-6.4,22c-9.4,32.6-16,65.7-21,99.2c-5,33.3-8,66.7-8.4,100.3 c-0.3,29,1,57.9,4.4,86.7c4.7,40.4,13,79.9,27.1,118.1c0.5,1.2,0.8,2.5,1.4,3.7c2.1,4.7,5.8,6.5,10,4.9c4.1-1.6,5.6-5.6,3.8-10.4 c-5.1-13.7-9.6-27.6-13.3-41.7c-6.4-24.4-10.8-49.2-14-74.3c-2.9-23.3-4.3-46.7-4.4-70.2c-0.2-31.4,1.1-62.8,5.3-94.1 c3.8-28,7.5-56,14.6-83.3c3.6-13.9,9.5-27.2,14.8-40.6c11.9-30,23.2-60.2,38.6-88.7c11.5-21.2,23.5-42.1,37.3-62 c1.3-2.7-0.2-4.6-1.6-6.7c-1.6-2.3-2.9-4.7-4.4-7c-8.6-10.5-13.7-22.7-18.4-35.2c-12.3-32-17.7-65.4-20.7-99.4 c-1.9-22.4-3-44.9-3.7-67.3c-0.6-18.6,0.7-37.2,2.7-55.7c0.2-2.1,0-4.2-1.2-5.7c-5-6-10-11.8-18-14.3c-25.4-8-48.6-20.9-71.3-34.6 c-25.8-15.6-50.6-32.7-73.9-51.9c-25.9-21.3-47.5-46.6-68.2-72.8c-26-32.8-48.4-68.1-69.2-104.4c-15.6-27.4-29.6-55.5-41.3-84.8 c-21.8-54.7-37.1-111.1-43.9-169.7c-4.2-36.2-7.8-72.5-8.9-109c-0.1-4.3-1.2-8.6-0.7-12.9c0.1-0.4,0.3-0.9,0.7-1.9 c5.2,4.9,10,9.6,15,14.1c33.3,30.2,70,55.9,107.5,80.4c44.2,28.9,89.4,56.1,133.2,85.6c1.8,1.2,3.5,2.4,4.7,4.7 c11.3,21.5,15.4,45.2,21.4,68.2c7.4,28.6,14.4,57.3,24.4,85.1c0.4,1.2,0.9,2.3,0.3,3.8c-2.8,7.1-3.2,14.6-3.3,22.1 c-0.1,17-0.5,34,0.9,50.9c2.9,33.9,12.7,64.8,37.5,89.5c0.8,0.8,1.6,1.7,2.5,2.4c2.6,2.1,5.3,2.3,7.6-0.2c2.3-2.4,2-5.2-0.3-7.6 c-5.1-5.3-9.9-10.8-14.2-16.7c-12.6-17.5-18.4-37.4-21.2-58.4c-2.6-20.1-2.3-40.2-2-60.3c0-0.7,0.1-1.5,0.2-3.6 c6,13.5,11.7,25.6,18.7,37.1c7.9,13,17,25.1,27.9,35.7c2,1.9,4,3.7,7,2.6c4.1-1.5,4.9-6.1,1.2-9.6c-18.4-17.8-31.1-39.4-41.3-62.5 c-13.3-30.3-22.6-62.1-30.7-94.1c-6.1-24.3-11.9-48.6-19.2-72.6c-0.2-0.2-0.5-0.6-0.5-0.7c0.4-0.6,0.7-0.2,1.1,0.1 c12.1,7.4,23.3,16,34.7,24.4c27.4,20.4,54.2,41.5,77.8,66.5c13.2,14,25.1,28.9,33.3,46.5c1.8,3.9,3.3,7.9,4,12.2 c0.5,3.6,2.3,6.7,6.4,6.1c4.3-0.6,5-4,4.4-7.6c-1.9-11.2-7.2-21-13.2-30.5c-16-25.2-37.1-45.7-59.5-65 c-54.2-46.4-114.2-84.6-174.2-122.7c-42.7-27.1-85.8-53.7-126.3-84.2c-19.3-14.5-38-29.9-55.1-47c-1.3-1.3-2.9-2.2-3.5-4.2 c2.2-1.6,4.8-1.3,7.2-1.2c55.7,3.1,111.5,5.1,166.4,16c28.6,5.7,56.6,13.8,84.4,22.7c42.1,13.4,83.4,28.6,124.3,45.2 c32.1,12.9,62.3,29.3,91.3,48.1c14.5,9.4,29.1,18.7,41.9,30.6c4,3.7,6.8,8.2,10.2,12.2c9.3,10.9,9.3,11.3,22.2,6.5 c52.2-19.7,106.8-29.3,161.5-38.2c35.9-5.8,71.9-10.1,108.3-9.2c3.3-0.2,6.6-0.4,9.9-0.5c30.1-1,60.1,0.3,90.1,0.9 c20.3,0.9,40.5,2.9,60.6,5.9c34.3,5,68.3,11.4,102.1,18.8c20.7,4.5,40.9,10.4,60.8,17.7c1.3,0.5,2.4,1.3,4.2,0.3 c11.2-6.3,23.5-10.2,35.5-14.8c54.5-20.7,110.3-36.1,168.5-42.4c43.2-4.7,86.4-9.2,129.9-11c17.3-0.7,34.6-2.5,51.9-2.4 c17.6,0.1,35.3,1.3,52.9,3c48.5,4.5,96.3,13.1,144,23.8c-5.7,1-11.4,2.1-17.2,2.9c-107.3,14.8-208.4,48.1-302.5,102 c-45.7,26.1-88.9,55.6-127.5,91.6c-10.2,9.6-20.2,19.4-29.2,30.2c-2.3,2.7-4,5.6-0.9,8.8c2.5,2.6,6,2.1,9-1.4 c44.9-51.4,100.4-89.1,159.1-122.6c0.6-0.3,1.2-0.5,1.8-0.7c0.5-0.6,1.1-1.2,1.8-0.4c0.1,0.1-0.6,0.8-0.9,1.3 c-22.9,36.6-33.2,78-45.6,118.6c-8.1,26.5-14.5,53.6-27.4,78.4c-6.6,12.8-14.3,24.8-24.6,35c-2.5,2.5-4.5,5.4-1.4,8.7 c3.2,3.4,6.4,1.9,9.1-0.8c12.9-13.1,22.4-28.4,30.2-45c2.6-5.5,4.9-11.2,7.6-17.5c2.5,7.7,2.7,15.2,3.2,22.4 c1.3,21.9,1.4,43.9-4.4,65.4c-4.2,15.5-10.8,29.7-23.5,40.2c-2.5,2.1-2.9,4.9-0.9,7.6c2.1,2.7,4.8,2.7,7.5,1 c3.8-2.5,6.8-5.9,9.6-9.4c12.2-15.1,18-32.7,20.9-51.6c2.5-16,3.2-32.1,2.1-48.2c-0.7-10-1.7-19.9-3.3-29.7 c-0.4-2.9-1.8-5.6-5.3-5.7c-2.9,0-2.8-1.4-2.1-3.5c12.3-39.1,22.2-78.9,36.8-117.3c4.8-12.8,10-25.4,17.3-37 c2.8-4.4,5.9-8.5,9.9-11.9c2.3-2,3.9-4.6,1.8-7.4c-1.9-2.7-0.4-3.2,1.6-4.2c16.8-8.8,33.9-17,51.3-24.5 c48.3-20.9,97.9-37.5,149.4-48.6c27.4-5.9,55-10.6,82.8-14.6c10.2-1.5,20.4-2.5,30.6-4.3c3.8-0.7,3.8,0.3,3.3,3.4 c-4.5,26.1-11,51.8-18.5,77.2c-7.6,25.7-16.1,51.1-26.9,75.7c-9.9,22.3-21.8,43.4-34.7,64c-23.8,37.9-53,71.4-83.8,103.5 c-35.6,37-74.8,69.8-119.1,95.9c-23.4,13.8-48.4,24.5-74,33.6C1441.2,649.8,1413.4,659.5,1384.8,666.7z" fill="inherit"/><path d="M751.9,509.8c-4.4-19.4-11.6-37.6-25.9-52c-16.9-17-37.7-18.3-56.5-3.6c-9.4,7.4-15.8,17.1-20.7,27.7 c-12.5,27.1-15.2,55.7-11.2,84.9c2.9,21.2,9.6,41.2,23.6,58c16.9,20.3,41,25.1,61.8,7.4c5.5-4.7,10-10.2,13.8-16.3 c13.6-22.1,18.5-46.4,18.6-72C755.4,532.5,754.4,521.1,751.9,509.8z M680.6,535.5c-15.8,0.1-29.2-13.2-29.4-29.1 c-0.2-15.8,13.2-29.2,29.1-29.3c16-0.1,29.2,13.1,29.3,29.1C709.7,522.2,696.6,535.5,680.6,535.5z" fill="inherit"/><path d="M1202,457.8c-16.9-17-37.8-18.3-56.5-3.6c-9.4,7.4-15.9,17-20.7,27.7c-14.7,32.9-16.4,66.9-7.8,101.5 c4.3,17.4,11.7,33.3,24.5,46.2c16.8,16.7,37.4,17.9,56.2,3.6c6.2-4.7,11-10.7,15-17.2c13.6-22.1,18.5-46.4,18.6-72 c0-11.4-0.8-22.6-3.3-33.7C1223.5,490.7,1216.4,472.4,1202,457.8z M1156,535.3c-16-0.3-28.7-13.3-28.6-29.2 c0.1-16.1,13.4-29.2,29.4-29c16.1,0.2,29.3,13.7,28.9,29.6C1185.2,523.1,1172.2,535.6,1156,535.3z" fill="inherit"/><path d="M1110.5,831.9c-13.8,11.2-28.6,20.7-45.1,27.2c-35.3,13.8-72,21-109.9,22c-7.1,0.2-7.5,0-7.4-7 c0.2-11.5,0.7-23,0.8-34.5c0-2.7,1-3.8,3.5-4.3c4.9-1,9.5-3.2,13.7-5.8c25.8-16.1,48.9-35.2,67.3-59.6c2.9-3.8,5.3-7.9,5.3-12.7 c-0.3-25.1-7.7-36.9-27.7-43.3c-47-15.2-94.1-17.4-141.7-1.3c-20.3,6.9-32.3,18.9-34.8,40.2c0,0.2-0.1,0.3-0.1,0.5 c-0.9,3.6-0.2,6.9,1.8,10c8.6,13.3,17.6,26.4,29.7,36.8c17.2,14.8,33.9,30.2,57,35.6c2.4,0.6,2.2,2,2.2,3.7 c-0.1,12.5-0.3,25-0.1,37.5c0,3.6-1.4,4.5-4.7,4.4c-9.3-0.3-18.6-0.2-27.9-1.2c-27.9-2.9-55.2-8.4-81.7-17.8 c-19.8-7.1-37.6-17.6-53.8-31c-4.3-3.5-9.1-4.3-13.9-1.8c-4.4,2.2-6.1,6.2-5.8,11.2c0.3,5.6,4.3,8.5,7.9,11.5 c14.4,12.1,30.4,21.4,47.7,28.8c9.6,4.1,19.8,6.6,29.5,10.6c1.5,0.2,3,0.3,4.4,0.7c31.8,8.2,64.1,13.4,97.1,12.6 c3.2-0.1,4.4,0.7,4.4,4.1c0,17.1,0.4,34.3,0.7,51.4c0.8,44.8,0.9,89.6,1.3,134.4c0,1.6,0.1,3.4,0.6,4.9c0.9,2.9,3.1,4.3,6.1,4.2 c3-0.1,5.1-1.7,5.9-4.5c0.4-1.6,0.4-3.3,0.4-4.9c-0.3-18.8-0.3-37.6-0.7-56.4c-0.9-42.6-0.9-85.3-1.4-127.9c0-4.1,0.9-5.5,5.2-5.3 c14.5,0.7,28.9-0.5,43.3-2.4c21.6-2.8,42.8-7.4,63.8-13.3c2-0.7,4-1.5,6.1-2.2c24.6-8.2,47.2-20,66.6-37.3 c6-5.4,6.8-12.6,2.4-17.6C1123.7,826.8,1116.9,826.8,1110.5,831.9z" fill="inherit"/></g><g fill="#DA828F" id="change4_1"><path d="M1819,1336c-6.6-6.3-14-10.5-23.5-10.2c-12.3,0.4-22.8,8.1-26.9,20.2c-3.9,11.5,0.2,24.2,10.5,32.5 c8.6,6.9,22.7,7.6,32.4,1.5c2.5-1.6,4.8-3.5,7.3-5.2C1819.3,1361.9,1820.9,1349,1819,1336z" fill="inherit"/><path d="M989.4,902.5c-14.4,1.9-28.8,3.1-43.3,2.4c-4.3-0.2-5.2,1.2-5.2,5.3c0.5,42.6,0.5,85.3,1.4,127.9 c0.4,18.8,0.4,37.6,0.7,56.4c0,1.7,0.1,3.4-0.4,4.9c-0.8,2.8-2.9,4.5-5.9,4.5c-3,0.1-5.2-1.4-6.1-4.2c-0.5-1.5-0.6-3.3-0.6-4.9 c-0.4-44.8-0.5-89.6-1.3-134.4c-0.3-17.1-0.7-34.3-0.7-51.4c0-3.4-1.2-4.2-4.4-4.1c-33,0.8-65.2-4.4-97.1-12.6 c-1.4-0.4-3-0.5-4.4-0.7c-0.1,2-0.4,4-0.4,5.9c0.1,16.8,0.6,33.6,2,50.3c1.8,21.5,4.8,42.9,10.3,63.8 c7.6,28.4,19.7,54.4,42.3,74.3c11.2,9.8,24,16.6,38.8,19.2c11.3,2,22.6,0.4,33.9,0.9c12.6,0.5,24.2-3.7,35-9.9 c21.7-12.4,35.6-31.7,45.8-53.9c13.1-28.5,17.7-59,20.9-89.7c2.1-21,2.5-42.2,2.3-63.3C1032.2,895.1,1011,899.7,989.4,902.5z" fill="inherit"/><path d="M260.7,1522.9c-33.2,0.1-59.5,25.5-59.3,59.2c0.2,33.5,25.9,58.5,58.8,58.7c32.3,0.2,59.3-24.4,59.4-59.1 C319.5,1548.2,292.7,1523.3,260.7,1522.9z" fill="inherit"/><path d="M170,1290.4c-18.4,0-34.4,15.7-33.9,34.2c0.5,18.8,13.4,34,33.9,34c20.6,0,33.1-15.3,34-34 C204,1306.1,188.4,1290.4,170,1290.4z" fill="inherit"/><path d="M84.7,1328.2c-15.8-0.1-28.6,12.9-28.7,28.4c-0.1,16.1,13,29.5,29,29.1c17-0.4,29.1-14.2,28.2-28.7 C114.1,1342,101.4,1328.3,84.7,1328.2z" fill="inherit"/><path d="M242.7,1411.6c14.1-0.1,24.2-11.8,23.4-23.4c1.1-13.6-10.9-24.1-23.1-24.2c-13.3-0.1-24,10.2-24.1,23.4 C218.9,1401,229.2,1411.7,242.7,1411.6z" fill="inherit"/><path d="M1620.8,1520.4c-34.2,0-59,26.1-59.6,59.1c-0.6,32.6,26.4,59.5,59.1,59.6c33,0.1,59.8-26.2,59.6-59 C1679.7,1547,1654.5,1520.5,1620.8,1520.4z" fill="inherit"/><path d="M1710.9,1288.1c-18.7,0.1-34.1,15.6-34.1,34.5c0,19.1,15,34.3,34,34.4c18.9,0.1,34.3-15.2,34.4-34.1 C1745.3,1303.7,1729.8,1288,1710.9,1288.1z" fill="inherit"/><path d="M1638.3,1410c13.5,0,24.5-10.9,24.5-24.4c0-12.9-11.2-23.8-24.5-23.7c-13.2,0-24.4,11.1-24.2,24 C1614.3,1399.3,1625.1,1410,1638.3,1410z" fill="inherit"/></g><g fill="#FEF9EA" id="change5_1"><path d="M1312.1,1683.1c-17.5,2.9-35.2,5-52.8,5.4c-18.5,0.4-36.5-3-51.7-15.6c-19.3-16-33.8-35.1-42.5-58.5 c-3.5-9.4-5.4-19.2-5.1-29.3c-5,5.1-7.9,11.8-13.2,16.7c-5.8,5.4-12.4,6.5-17.9,2.4c-6.6-4.9-8.4-11.6-4.5-18.8 c4.7-8.6,11.1-16.1,16.8-24c18.2-25.1,36.5-50.1,54.7-75.2c11.2-15.4,22.1-31.1,33.4-46.5c3.3-4.5,8.3-7.5,14.3-6.3 c6.3,1.2,11.6,6.8,12.3,12.9c0.5,4-1.7,7.4-3.8,10.5c-10.6,16.1-22.1,31.5-33.4,47c-9.1,12.6-18.3,25.2-27.4,37.9 c-0.6,0.8-2.3,1.7-1.2,3.3c29.5-17.1,61.1-30.3,89.9-48.7c11.7-7.5,22.2-16.4,32.1-26.1c24.2-23.6,47.5-48,67.5-75.3 c4.7-6.4,8.9-13.3,13-20.1c8.9-14.7,8.1-29.8,0.5-44.6c-6.7-13.1-14.8-25.1-26.5-34.5c-11.7-9.3-18.1-9.3-29.7,1 c-7.9,7.1-15.7,14.4-23.6,21.5c-2,1.8-4.1,3.4-6.4,4.8c-3.7,2.4-7.9,3-11.8,0.8c-4.1-2.3-5.3-6.3-5-10.7c0.7-9,3.2-17.6,5.6-26.2 c8.2-29.9,17.7-59.5,24.8-89.7c4.9-20.6,9-41.4,10.9-62.6c0.9-9.8,1.4-19.6,1.3-29.3c-0.1-16.9-0.7-33.8-2.3-50.7 c-1.1-12.2-2-24.4-3.3-36.6c-0.3-3.3-0.7-6.6-1.1-9.9c-7.1,8.1-13.2,16.9-20.3,25.1c-11.2,13-23.2,25.1-35.8,36.7 c-16.8,15.4-34.7,29.4-53.1,42.7c-24.6,17.8-50.3,34.1-76.3,49.8c-16,9.7-33.9,13.3-51.3,18.5c-27.6,8.3-55.8,14.3-84.1,20.1 c-0.8,0.2-1.4,0.7-2.2,1c12.6,17.1,19.4,36.4,19.8,57.5c0.5,22.6-5.9,43.4-19.6,61.5c-14.7,19.5-34,32.4-57.9,38.4 c-4.4,1.1-5.4,0.1-5.5-4.3c-0.4-14-1.2-27.9-0.8-41.9c0.2-7.1,0.7-14.3,0.9-21.4c0.1-2.1,1.3-3.3,2.4-4.7c5.8-7.8,6.5-16.3,2.7-25 c-3.9-8.9-11.6-13.3-20.9-13.8c-7.6-0.4-17.7,3.9-22.1,13.5c-4,8.8-3.1,19.9,3.4,25.9c4.5,4.2,5.8,8.6,5.6,14.5 c-0.4,13.5,0,27-0.2,40.5c0,5.1-0.6,10.3-0.8,15.4c-0.1,3.5-2.3,3-4.5,2.6c-15.7-3.2-30.2-9.1-42.9-18.9 c-19.6-15.1-32.5-34.5-37.6-58.7c-6.4-30.5,0.3-58.1,18.9-83c-17.4-3-34.8-6.5-51.9-11.2c-3.9-1.1-7.4-2.9-10.7-5.2 c-3.5-2.4-7-3.8-11.6-3.3c-4.1,0.5-7.8-2.4-11.6-3.9c-36.7-14.3-70.9-33.5-103.3-55.6c-16-11-31.2-22.9-45.7-35.9 c-4.9-4.4-9.4-9.3-14.1-13.9c-2.1,9.8-1.4,19.9-1.6,29.8c-0.2,10.9,0.5,21.9,1.3,32.8c2,26.8,7.9,52.8,14.6,78.6 c6.9,26.6,15,53,22.4,79.5c1.7,5.9,3,11.9,4,17.9c0.9,5.2,0.7,10.7-4.4,13.9c-5,3.2-9.9,1.5-14.3-1.9c-6-4.5-11.5-9.6-16.8-14.9 c-5.6-5.5-11.4-10.7-18-15c-6-3.9-11.8-4-17.6,0c-14.4,9.9-24.3,23.4-31.8,38.9c-3.1,6.5-5.4,13.2-5.9,20.4 c-0.8,11.8,5.1,21.5,10.9,31c10.4,16.9,23.1,32,36.4,46.7c11.3,12.5,22.9,24.6,34.7,36.6c22.3,22.8,49,39,77.2,53.3 c18.2,9.3,37,17.5,53.9,29.2c7,4.8,13.9,9.6,18.9,16.7c8.1,11.6,8.3,24.2,5.5,37.2c-4.6,21.8-15.8,40-30.5,56.3 c-9.7,10.8-20.9,20-34.6,25.5c-7.7,3.1-15.8,3.7-23.9,4.1c-24.4,1.1-48.5-2.7-72.5-6.7c-25.2-4.2-50.2-9.7-74.4-17.8 c-12.8-4.2-25.7-7.7-38.8-10.5c5.3,11,11.9,21.1,18.5,31.3c20.5,31.6,42.8,61.9,66.5,91.1c20.4,25.2,41.2,50.1,66.7,70.6 c29.6,23.8,62.9,39.7,98.9,50.4c13.3,3.9,26.7,7.1,40.4,8.7c-0.8-3.8-4.1-5.6-6.5-7.9c-26-25.4-41.2-56.7-50.9-91.1 c-2-7,1.1-13.9,7-17.8c8.1-5.3,17.7,1.2,20.3,8.7c2.5,7.2,4.4,14.6,7.2,21.7c7.6,19.5,17.8,37.3,31.9,53 c10.2,11.2,21.8,20.8,33,30.9c1,0.9,2,1.8,2.1,3.3c15.9-1.7,31.4-5.5,46.3-11.2c-0.1-3.8-0.5-7.7-0.3-11.5 c1.1-21.3-6.4-40.2-16.7-58.1c-9.2-16-19.2-31.5-28.8-47.2c-7.3-12-0.6-20.6,8.3-23.2c4.7-1.4,12.2,1.4,15.1,6.4 c12.1,21,26.7,40.6,37.2,62.5c8.1,16.7,13.8,34.1,13.9,53c0,1.3-0.2,2.7,1.1,3.6c4.6-2.7,9-5.2,12-10.1 c8.2-13.7,9.7-28.1,6.4-43.6c-6.6-30.6-17.3-59.7-31.8-87.4c-20.4-39.1-43.5-76.6-69.9-112c-6.2,0.7-8.8-4.1-11.7-7.9 c-12.9-17.1-25.4-34.4-38.1-51.6c-23.8-32.1-47.8-64.1-69.6-97.6c-2.4-3.7-4.8-7.6-6.7-11.7c-3.5-7.6-0.6-15.8,6.7-19.5 c6.6-3.4,14.1-1.1,18.4,5.9c23,37.6,49.9,72.3,76,107.7c13,17.6,26.6,34.7,38.5,53.1c1.9,2.9,2.5,6,2.7,9.4 c5.7,4.1,12.2,6.7,18.6,9.5c36.3,15.8,74.5,22,113.8,21.3c23.3-0.4,46.5-2.9,69.5-6.7c22.3-3.6,43.7-10.1,63.4-21.6 c8.8-5.2,9-5,16.1,2.8c0.3,0.4,0.6,0.8,1,1.1c3.9,3,3.4,6.1,0.9,10c-20.5,31.8-37.6,65.5-53,100c-12.8,28.7-22.3,58.4-27.1,89.5 c-2.1,13.9-2,27.4,4.9,40.1c1.6-2.1,0.9-4.5,0.8-6.7c-1-35.7,10.7-67.8,27.6-98.5c3.3-6,6.5-12,10.9-17.2 c3.7-4.4,8.3-8.1,14.5-6.8c11,2.1,15.3,14.6,8.5,24.3c-16.2,22.7-26.4,47.9-31.2,75.3c-2.5,14.1-1.4,28.4,0.4,42.6 c0.5,4.2,2,8.4,1.1,12.8c14.1,6.8,28.9,11.4,44.3,14.4c9.4-20.1,12.6-42.3,21.1-62.7c5.5-13,10.9-26.2,20.9-36.6 c8-8.4,21.4-4.7,24.5,6.4c1.2,4.4-0.5,8.1-2.8,11.2c-14.8,20.4-21.2,44.1-27.7,67.9c-1.5,5.6-4.6,10.7-5,16.6 c17.1-0.4,33.7-3.6,50.1-8.2c27.4-7.8,53.1-19.2,76.5-35.6c20.8-14.5,36.8-33.5,52.1-53.3c25.9-33.5,48.6-69.1,69.7-105.8 c8.6-14.8,16.2-30.2,23.1-45.9c-6.6,1.1-12.4,4.7-18.7,6.8C1373.3,1671.5,1342.9,1678.1,1312.1,1683.1z" fill="inherit"/><path d="M496.9,976.3c1.5,2.3,2.8,4.7,4.4,7c1.4,2.1,3,4,1.6,6.7c5.9,17.5,19.9,27.6,33.8,38 c17.9,13.3,36.9,24.8,56.4,35.6c0.7,0.4,1.3,1,2,1.5c7.1,2.6,13.5,6.5,20.2,9.7c29.9,14.3,61,25.4,92.9,34.4 c28.6,8,57.6,14.1,86.8,18.7c15.2,2.4,30.5,4,45.8,5.4c32.2,3,64.4,3.4,96.6,2.7c19.9-0.4,39.7-1.6,59.5-3.6 c39.1-4,77.6-11.2,115.6-21.2c30.2-8,59.7-18.2,88.3-30.9c28.5-12.7,55.6-27.8,81.2-45.6c13.6-9.5,26.9-19.4,38.5-31.5 c1.2-1.3,2.3-2.9,4.4-3.1c4.5-5.6,9-11.3,13.6-16.8c1.5-1.8,2.2-4.1,4.5-5.2c-1.5-2.5-3-5.1-4.7-7.6c-0.9-1.3-1.3-2.5-0.4-4.1 c9.7-16.4,15.3-34.5,20.5-52.7c4.3-14.9,7.4-29.9,8.5-45.4c-2.6-1.9-3.1-5-4.6-7.6c-1.9-3.3-3.7-6.7-6.7-9.3 c-8.5-7.2-17-14.4-25.5-21.6c-21.1-18.1-43.1-34.9-65.9-50.8c-33.2-23.1-68.5-42.8-103.9-62.3c-27.3-15.1-52.9-32.4-73.3-56.7 c-13.6-16.2-25-33.7-34.2-52.5c-10.7-21.8-18.4-44.9-24.6-68.4c-12.1-45.4-19.6-91.7-25.1-138.3c-2.4-19.9-4.2-39.9-6-59.8 c-1.9-21.3-3.5-42.6-5-64c-1.2-17.9-1.8-35.8-3.3-53.7c-0.5-6.3-1-12.6-1.4-18.8c-0.5-8.1-2.3-16.1-1.5-24.2 c-30-0.6-60.1-1.9-90.1-0.9c-3.3,0.1-6.6,0.3-9.9,0.5c0,1,0.2,2,0,3c-2.2,17.1-2.9,34.4-4,51.6c-0.7,10.4-1.3,20.9-2.1,31.3 c-1.3,19.5-3.2,39-4.8,58.5c-1.1,13.6-1.7,27.2-3.2,40.7c-2.5,21.7-4.7,43.5-7.7,65.1c-4.3,31.2-9.8,62.2-17.3,92.8 c-8.9,36.3-20.1,71.7-39.2,104.1c-16.9,28.6-38.8,52.5-66.4,71.2c-23.6,15.9-49.2,28.5-73.8,42.8c-25.9,15.1-51.2,31-75.4,48.6 c-21.1,15.4-41.6,31.5-61.3,48.6c-10.2,8.9-20.6,17.3-26.3,30.6c-12.2,28.7-17.8,57.8-11.7,88.8 C494,963.7,496.9,969.7,496.9,976.3z M742.9,829.5c4.9-2.5,9.7-1.7,13.9,1.8c16.2,13.4,34,23.9,53.8,31 c26.5,9.4,53.8,14.9,81.7,17.8c9.3,1,18.6,0.8,27.9,1.2c3.3,0.1,4.7-0.7,4.7-4.4c-0.1-12.5,0.1-25,0.1-37.5c0-1.7,0.2-3.2-2.2-3.7 c-23-5.4-39.8-20.9-57-35.6c-12.1-10.4-21.1-23.5-29.7-36.8c-2-3.1-2.7-6.4-1.8-10c0-0.2,0.1-0.3,0.1-0.5 c2.5-21.3,14.5-33.3,34.8-40.2c47.6-16.1,94.7-13.9,141.7,1.3c19.9,6.4,27.4,18.3,27.7,43.3c0.1,4.8-2.4,8.9-5.3,12.7 c-18.5,24.4-41.6,43.5-67.3,59.6c-4.2,2.6-8.8,4.8-13.7,5.8c-2.5,0.5-3.5,1.5-3.5,4.3c-0.1,11.5-0.6,23-0.8,34.5 c-0.1,7,0.3,7.2,7.4,7c37.9-1,74.6-8.2,109.9-22c16.6-6.5,31.3-16.1,45.1-27.2c6.4-5.2,13.2-5.1,17.8,0.1c4.4,5,3.6,12.2-2.4,17.6 c-19.4,17.4-42,29.2-66.6,37.3c-2,0.7-4.1,1.5-6.1,2.2c0.2,21.1-0.2,42.3-2.3,63.3c-3.1,30.8-7.8,61.3-20.9,89.7 c-10.2,22.2-24.1,41.4-45.8,53.9c-10.8,6.2-22.4,10.4-35,9.9c-11.3-0.5-22.6,1.1-33.9-0.9c-14.9-2.6-27.6-9.3-38.8-19.2 c-22.6-19.9-34.8-45.8-42.3-74.3c-5.5-20.9-8.5-42.2-10.3-63.8c-1.4-16.8-1.9-33.5-2-50.3c0-2,0.3-4,0.4-5.9 c-9.7-4-19.9-6.5-29.5-10.6c-17.3-7.4-33.3-16.7-47.7-28.8c-3.6-3.1-7.6-6-7.9-11.5C736.9,835.7,738.5,831.7,742.9,829.5z" fill="inherit"/><path d="M359.1,1490.8c-7.4-23.1-16.3-45.7-26.3-67.8c-14.6-32.3-31.2-63.5-52.9-91.8c-4.2-5.5-9.6-10.1-13-16.2 c-7.1,4.9-7.1,4.9-14.1-1.2c-0.9-0.8-1.7-1.6-2.6-2.3c-29.4-24.7-61.7-44.7-98.4-56.8c-17.6-5.8-35.2-7.6-53.3-1.1 c-25.8,9.2-39.3,29.3-48.3,53.2c-8.4,22.2-6.7,45.6-4.7,68.6c2.2,25.3,7.3,50,13.6,74.6c9.9,38.5,23.3,75.7,43.9,110 c14.8,24.6,31.1,48,53.1,67c19.9,17.1,41.3,31.9,64.9,43.6c15.7,7.8,32.5,11.4,49.8,11.1c24.3-0.4,47-7.5,68.6-19.1 c18-9.7,25.7-25.1,27.4-44c1-10.3,1.2-20.2,10.9-26.6c0.2-0.2,0.3-0.6,0.4-0.9c-0.3-9.5-1.8-18.8-3.1-28.1 C371.6,1538.5,366.6,1514.3,359.1,1490.8z M85,1385.8c-16,0.3-29.1-13-29-29.1c0.1-15.5,12.9-28.5,28.7-28.4 c16.7,0.1,29.5,13.7,28.4,28.9C114.1,1371.5,102,1385.4,85,1385.8z M243,1364.1c12.2,0.1,24.2,10.6,23.1,24.2 c0.8,11.6-9.4,23.2-23.4,23.4c-13.5,0.1-23.8-10.7-23.7-24.2C219,1374.3,229.7,1364,243,1364.1z M170,1358.6 c-20.5,0-33.4-15.2-33.9-34c-0.5-18.5,15.5-34.2,33.9-34.2c18.4,0,34,15.7,34,34.2C203.1,1343.3,190.6,1358.6,170,1358.6z M260.1,1640.8c-32.9-0.2-58.5-25.1-58.8-58.7c-0.2-33.7,26.2-59,59.3-59.2c32,0.3,58.8,25.3,58.8,58.7 C319.5,1616.4,292.4,1641,260.1,1640.8z" fill="inherit"/><path d="M1779,1378.5c-10.3-8.2-14.4-20.9-10.5-32.5c4.1-12.1,14.7-19.8,26.9-20.2c9.6-0.3,16.9,3.9,23.5,10.2 c-0.1-11.1-2-21.9-6.7-32c-6.7-14.5-13.5-29.1-27.2-38.7c-13.5-9.5-28.4-15.7-45.2-15c-15.5,0.6-30.1,5.4-44.3,11.5 c-20.7,8.9-40.3,19.8-58.8,32.8c-18.7,13.1-35.7,27.9-48.3,47.2c-3.5,5.3-8,9.8-12.4,14.4c-3.4,3.6-6.4,4.5-10.1,0.8 c-0.5,1.2-0.8,2.5-1.5,3.7c-10.8,17.4-20.4,35.4-29,54.1c-17.5,37.9-32.9,76.6-41.2,117.8c-3.9,19.3-7.3,38.7-8.4,58.5 c8,5.6,11.7,13.2,10.8,23c-0.2,2.3-0.1,4.7,0.3,7c2.7,16,7.8,30.6,22.8,39.5c7.9,4.7,16,8.9,24.5,12.3c29,11.4,58.5,13.6,88.2,3.1 c16.1-5.7,30.5-14.8,44.5-24.4c16-11,31.8-22.6,44.9-37.1c34.1-37.8,57.5-81.7,73.2-129.9c11.6-35.7,20-72.2,23.5-109.6 c-2.4,1.7-4.7,3.6-7.3,5.2C1801.7,1386.1,1787.6,1385.4,1779,1378.5z M1638.3,1361.9c13.3,0,24.5,10.8,24.5,23.7 c0,13.5-11,24.4-24.5,24.4c-13.2,0-23.9-10.7-24.2-24.1C1613.9,1373,1625.1,1361.9,1638.3,1361.9z M1620.3,1639.1 c-32.7-0.1-59.7-26.9-59.1-59.6c0.6-33,25.4-59.1,59.6-59.1c33.6,0,58.9,26.6,59.1,59.6 C1680.1,1612.9,1653.3,1639.2,1620.3,1639.1z M1710.8,1357c-19-0.1-34-15.3-34-34.4c0-18.9,15.3-34.4,34.1-34.5 c18.9-0.1,34.4,15.6,34.3,34.8C1745.1,1341.8,1729.8,1357.1,1710.8,1357z" fill="inherit"/><path d="M704.7,338.6c6,8.6,11.2,17.7,14.3,27.9c1,3.2,3.2,5.4,6.7,4.4c3.2-1,4.7-3.6,3.6-7.1 c-0.9-2.9-1.6-5.8-2.8-8.5c-4.6-11.1-11.3-21.1-18.6-30.6c-6-8-12-15.9-19-23.1c-1.5-1.6-3.4-3.1-5.7-1.9c-2,1-3.5,2.6-3.3,5.2 c-0.2,1.9,0.8,3.3,2,4.8C689.9,319,697.7,328.5,704.7,338.6z" fill="inherit"/><path d="M657.4,337.5c7.3,4.9,14.2,10.4,20.4,16.7c6.8,6.9,13.7,13.6,18.9,21.8c1.4,2.2,3.2,4.7,6.4,3.6 c2.5-0.9,4.1-2.8,3.8-5.8c0.1-1.4-0.5-2.6-1.3-3.7c-11.5-16.6-25.7-30.5-42.3-41.8c-3-2-6.7-3-9.3,0.7 C651.2,333.1,654.5,335.6,657.4,337.5z" fill="inherit"/><path d="M1148.4,384.5c4.1,1.7,6.1-1,7.8-4.1c6.8-12.3,16.1-22.7,25.8-32.7c8.1-8.3,16.6-16.3,27-21.8 c2.8-1.5,3.5-3.9,2.7-6.8c-0.7-2.4-2.5-3.4-5-3.3c-3.7,0.6-6.8,2.5-9.8,4.6c-10.2,7.2-19.4,15.7-27.7,24.9 c-8.3,9.2-16.4,18.7-22.6,29.6C1144.4,379,1145.1,383.1,1148.4,384.5z" fill="inherit"/><path d="M1178.7,382.6c-1.7,1.7-2.3,3.7-1.3,5.9c1,2,2.8,2.8,4.9,2.6c1.6,0.1,3-0.3,4.3-1.3 c9.5-7,19.9-12.7,30.3-18.2c2.9-1.6,5.2-3.6,3.5-7.1c-1.7-3.6-4.7-4.4-8.4-2.5c-6.9,3.4-13.6,7.1-20,11.3 C1187.6,376.2,1182.6,378.7,1178.7,382.6z" fill="inherit"/><path d="M680.6,535.5c16-0.1,29.1-13.3,29.1-29.4c0-16-13.3-29.1-29.3-29.1c-16,0.1-29.3,13.5-29.1,29.3 C651.4,522.4,664.8,535.6,680.6,535.5z" fill="inherit"/><path d="M1156,535.3c16.3,0.3,29.3-12.3,29.7-28.7c0.4-15.9-12.7-29.4-28.9-29.6c-16.1-0.2-29.4,12.9-29.4,29 C1127.3,522.1,1140,535.1,1156,535.3z" fill="inherit"/></g></g></svg>